<mxfile host="app.diagrams.net" modified="2022-09-01T03:36:44.270Z" agent="5.0 (Macintosh; Intel Mac OS X 10_15_7) AppleWebKit/537.36 (KHTML, like Gecko) Chrome/104.0.0.0 Safari/537.36" etag="40cs6yBWIIiX2x5FUGEX" version="20.2.3" type="github">
  <diagram id="1s7QcpgOuhDaoHmSl98A" name="第 1 页">
    <mxGraphModel dx="1426" dy="801" grid="1" gridSize="10" guides="1" tooltips="1" connect="1" arrows="1" fold="1" page="1" pageScale="1" pageWidth="827" pageHeight="1169" math="0" shadow="0">
      <root>
        <mxCell id="0" />
        <mxCell id="1" parent="0" />
        <mxCell id="FCOi1G15XyQF1UqKBKPu-3" value="" style="edgeStyle=orthogonalEdgeStyle;rounded=0;orthogonalLoop=1;jettySize=auto;html=1;" edge="1" parent="1" source="FCOi1G15XyQF1UqKBKPu-1" target="FCOi1G15XyQF1UqKBKPu-2">
          <mxGeometry relative="1" as="geometry" />
        </mxCell>
        <mxCell id="FCOi1G15XyQF1UqKBKPu-1" value="Actor" style="shape=umlActor;verticalLabelPosition=bottom;verticalAlign=top;html=1;outlineConnect=0;" vertex="1" parent="1">
          <mxGeometry x="425" y="30" width="30" height="60" as="geometry" />
        </mxCell>
        <mxCell id="FCOi1G15XyQF1UqKBKPu-5" value="" style="edgeStyle=orthogonalEdgeStyle;rounded=0;orthogonalLoop=1;jettySize=auto;html=1;" edge="1" parent="1" source="FCOi1G15XyQF1UqKBKPu-2" target="FCOi1G15XyQF1UqKBKPu-4">
          <mxGeometry relative="1" as="geometry" />
        </mxCell>
        <mxCell id="FCOi1G15XyQF1UqKBKPu-2" value="点击「获取海外链接」按钮" style="whiteSpace=wrap;html=1;verticalAlign=top;" vertex="1" parent="1">
          <mxGeometry x="380" y="130" width="120" height="40" as="geometry" />
        </mxCell>
        <mxCell id="FCOi1G15XyQF1UqKBKPu-7" value="" style="edgeStyle=orthogonalEdgeStyle;rounded=0;orthogonalLoop=1;jettySize=auto;html=1;exitX=1;exitY=0.5;exitDx=0;exitDy=0;" edge="1" parent="1" source="FCOi1G15XyQF1UqKBKPu-4" target="FCOi1G15XyQF1UqKBKPu-6">
          <mxGeometry relative="1" as="geometry" />
        </mxCell>
        <mxCell id="FCOi1G15XyQF1UqKBKPu-10" value="未获取到链接" style="edgeLabel;html=1;align=center;verticalAlign=middle;resizable=0;points=[];" vertex="1" connectable="0" parent="FCOi1G15XyQF1UqKBKPu-7">
          <mxGeometry x="-0.0377" y="-1" relative="1" as="geometry">
            <mxPoint x="1" y="29" as="offset" />
          </mxGeometry>
        </mxCell>
        <mxCell id="FCOi1G15XyQF1UqKBKPu-9" value="获取链接成功" style="edgeStyle=orthogonalEdgeStyle;rounded=0;orthogonalLoop=1;jettySize=auto;html=1;exitX=0;exitY=0.5;exitDx=0;exitDy=0;" edge="1" parent="1" source="FCOi1G15XyQF1UqKBKPu-4" target="FCOi1G15XyQF1UqKBKPu-8">
          <mxGeometry x="0.1667" relative="1" as="geometry">
            <mxPoint as="offset" />
          </mxGeometry>
        </mxCell>
        <mxCell id="FCOi1G15XyQF1UqKBKPu-4" value="&lt;br&gt;调用接口获&lt;br&gt;取海外链接" style="rhombus;whiteSpace=wrap;html=1;verticalAlign=top;" vertex="1" parent="1">
          <mxGeometry x="370" y="220" width="140" height="70" as="geometry" />
        </mxCell>
        <mxCell id="FCOi1G15XyQF1UqKBKPu-12" value="" style="edgeStyle=orthogonalEdgeStyle;rounded=0;orthogonalLoop=1;jettySize=auto;html=1;exitX=0.5;exitY=1;exitDx=0;exitDy=0;entryX=0.5;entryY=0;entryDx=0;entryDy=0;" edge="1" parent="1" source="FCOi1G15XyQF1UqKBKPu-6" target="FCOi1G15XyQF1UqKBKPu-11">
          <mxGeometry relative="1" as="geometry">
            <Array as="points">
              <mxPoint x="620" y="500" />
              <mxPoint x="440" y="500" />
            </Array>
          </mxGeometry>
        </mxCell>
        <mxCell id="FCOi1G15XyQF1UqKBKPu-6" value="弹窗显示&lt;br&gt;1. 提示语：未获取到下载地址，请选择区域后生成&lt;br&gt;2. 选择区域 + 重新生成链接 按钮" style="whiteSpace=wrap;html=1;verticalAlign=top;align=left;" vertex="1" parent="1">
          <mxGeometry x="500" y="360" width="240" height="80" as="geometry" />
        </mxCell>
        <mxCell id="FCOi1G15XyQF1UqKBKPu-13" style="edgeStyle=orthogonalEdgeStyle;rounded=0;orthogonalLoop=1;jettySize=auto;html=1;exitX=0.5;exitY=1;exitDx=0;exitDy=0;entryX=0.5;entryY=0;entryDx=0;entryDy=0;" edge="1" parent="1" source="FCOi1G15XyQF1UqKBKPu-8" target="FCOi1G15XyQF1UqKBKPu-11">
          <mxGeometry relative="1" as="geometry" />
        </mxCell>
        <mxCell id="FCOi1G15XyQF1UqKBKPu-8" value="弹窗显示 &lt;br&gt;1.下载地址 + 复制按钮&lt;br&gt;&lt;div style=&quot;&quot;&gt;&lt;span style=&quot;background-color: initial;&quot;&gt;2. 选择区域 + 重新生成链接 按钮&lt;/span&gt;&lt;/div&gt;" style="whiteSpace=wrap;html=1;verticalAlign=top;align=left;" vertex="1" parent="1">
          <mxGeometry x="140" y="370" width="240" height="60" as="geometry" />
        </mxCell>
        <mxCell id="FCOi1G15XyQF1UqKBKPu-15" value="" style="edgeStyle=orthogonalEdgeStyle;rounded=0;orthogonalLoop=1;jettySize=auto;html=1;" edge="1" parent="1" source="FCOi1G15XyQF1UqKBKPu-11" target="FCOi1G15XyQF1UqKBKPu-14">
          <mxGeometry relative="1" as="geometry" />
        </mxCell>
        <mxCell id="FCOi1G15XyQF1UqKBKPu-11" value="点击生成链接 按钮" style="whiteSpace=wrap;html=1;verticalAlign=top;" vertex="1" parent="1">
          <mxGeometry x="380" y="570" width="120" height="40" as="geometry" />
        </mxCell>
        <mxCell id="FCOi1G15XyQF1UqKBKPu-14" value="弹窗提示（类似校验和计算）&lt;br&gt;海外地址生成中，可进入「海外地址生成记录」查看进度" style="whiteSpace=wrap;html=1;verticalAlign=top;align=left;" vertex="1" parent="1">
          <mxGeometry x="260" y="650" width="360" height="50" as="geometry" />
        </mxCell>
        <mxCell id="FCOi1G15XyQF1UqKBKPu-17" value="" style="rounded=0;whiteSpace=wrap;html=1;" vertex="1" parent="1">
          <mxGeometry x="40" y="760" width="360" height="180" as="geometry" />
        </mxCell>
        <mxCell id="FCOi1G15XyQF1UqKBKPu-18" value="海外下载链接" style="text;html=1;align=center;verticalAlign=middle;resizable=0;points=[];autosize=1;strokeColor=none;fillColor=none;" vertex="1" parent="1">
          <mxGeometry x="40" y="760" width="100" height="30" as="geometry" />
        </mxCell>
        <mxCell id="FCOi1G15XyQF1UqKBKPu-19" value="" style="endArrow=none;html=1;rounded=0;entryX=0.997;entryY=0.217;entryDx=0;entryDy=0;entryPerimeter=0;" edge="1" parent="1">
          <mxGeometry width="50" height="50" relative="1" as="geometry">
            <mxPoint x="40" y="790" as="sourcePoint" />
            <mxPoint x="398.9200000000001" y="789.06" as="targetPoint" />
          </mxGeometry>
        </mxCell>
        <mxCell id="FCOi1G15XyQF1UqKBKPu-20" value="" style="endArrow=none;html=1;rounded=0;" edge="1" parent="1">
          <mxGeometry width="50" height="50" relative="1" as="geometry">
            <mxPoint x="60" y="854" as="sourcePoint" />
            <mxPoint x="380" y="854" as="targetPoint" />
          </mxGeometry>
        </mxCell>
        <mxCell id="FCOi1G15XyQF1UqKBKPu-22" value="链接：https://.xxx.xxx.com/xxx/xxx/xxx/xxxx" style="text;html=1;align=center;verticalAlign=middle;resizable=0;points=[];autosize=1;strokeColor=none;fillColor=none;" vertex="1" parent="1">
          <mxGeometry x="44" y="810" width="260" height="30" as="geometry" />
        </mxCell>
        <mxCell id="FCOi1G15XyQF1UqKBKPu-23" value="复制" style="rounded=1;whiteSpace=wrap;html=1;" vertex="1" parent="1">
          <mxGeometry x="297" y="818" width="30" height="15" as="geometry" />
        </mxCell>
        <mxCell id="FCOi1G15XyQF1UqKBKPu-24" value="X" style="text;html=1;align=center;verticalAlign=middle;resizable=0;points=[];autosize=1;strokeColor=none;fillColor=none;" vertex="1" parent="1">
          <mxGeometry x="370" y="760" width="30" height="30" as="geometry" />
        </mxCell>
        <mxCell id="FCOi1G15XyQF1UqKBKPu-25" value="选择区域" style="rounded=1;whiteSpace=wrap;html=1;align=left;" vertex="1" parent="1">
          <mxGeometry x="59" y="880" width="230" height="20" as="geometry" />
        </mxCell>
        <mxCell id="FCOi1G15XyQF1UqKBKPu-26" value="重新生成链接" style="rounded=1;whiteSpace=wrap;html=1;" vertex="1" parent="1">
          <mxGeometry x="304" y="880" width="76" height="20" as="geometry" />
        </mxCell>
        <mxCell id="FCOi1G15XyQF1UqKBKPu-27" value="" style="rounded=0;whiteSpace=wrap;html=1;" vertex="1" parent="1">
          <mxGeometry x="440" y="760" width="360" height="180" as="geometry" />
        </mxCell>
        <mxCell id="FCOi1G15XyQF1UqKBKPu-28" value="海外下载链接" style="text;html=1;align=center;verticalAlign=middle;resizable=0;points=[];autosize=1;strokeColor=none;fillColor=none;" vertex="1" parent="1">
          <mxGeometry x="440" y="760" width="100" height="30" as="geometry" />
        </mxCell>
        <mxCell id="FCOi1G15XyQF1UqKBKPu-29" value="" style="endArrow=none;html=1;rounded=0;entryX=0.997;entryY=0.217;entryDx=0;entryDy=0;entryPerimeter=0;" edge="1" parent="1">
          <mxGeometry width="50" height="50" relative="1" as="geometry">
            <mxPoint x="440" y="790" as="sourcePoint" />
            <mxPoint x="798.9200000000001" y="789.06" as="targetPoint" />
          </mxGeometry>
        </mxCell>
        <mxCell id="FCOi1G15XyQF1UqKBKPu-30" value="" style="endArrow=none;html=1;rounded=0;" edge="1" parent="1">
          <mxGeometry width="50" height="50" relative="1" as="geometry">
            <mxPoint x="460" y="854" as="sourcePoint" />
            <mxPoint x="780" y="854" as="targetPoint" />
          </mxGeometry>
        </mxCell>
        <mxCell id="FCOi1G15XyQF1UqKBKPu-31" value="提示：未获取到下载地址，请选择区域后生成" style="text;html=1;align=center;verticalAlign=middle;resizable=0;points=[];autosize=1;strokeColor=none;fillColor=none;" vertex="1" parent="1">
          <mxGeometry x="448" y="810" width="260" height="30" as="geometry" />
        </mxCell>
        <mxCell id="FCOi1G15XyQF1UqKBKPu-33" value="X" style="text;html=1;align=center;verticalAlign=middle;resizable=0;points=[];autosize=1;strokeColor=none;fillColor=none;" vertex="1" parent="1">
          <mxGeometry x="770" y="760" width="30" height="30" as="geometry" />
        </mxCell>
        <mxCell id="FCOi1G15XyQF1UqKBKPu-34" value="选择区域" style="rounded=1;whiteSpace=wrap;html=1;align=left;" vertex="1" parent="1">
          <mxGeometry x="459" y="880" width="230" height="20" as="geometry" />
        </mxCell>
        <mxCell id="FCOi1G15XyQF1UqKBKPu-35" value="生成链接" style="rounded=1;whiteSpace=wrap;html=1;" vertex="1" parent="1">
          <mxGeometry x="704" y="880" width="76" height="20" as="geometry" />
        </mxCell>
        <mxCell id="FCOi1G15XyQF1UqKBKPu-36" value="" style="rounded=0;whiteSpace=wrap;html=1;" vertex="1" parent="1">
          <mxGeometry x="40" y="970" width="360" height="140" as="geometry" />
        </mxCell>
        <mxCell id="FCOi1G15XyQF1UqKBKPu-37" value="海外下载链接" style="text;html=1;align=center;verticalAlign=middle;resizable=0;points=[];autosize=1;strokeColor=none;fillColor=none;" vertex="1" parent="1">
          <mxGeometry x="40" y="970" width="100" height="30" as="geometry" />
        </mxCell>
        <mxCell id="FCOi1G15XyQF1UqKBKPu-38" value="" style="endArrow=none;html=1;rounded=0;entryX=0.997;entryY=0.217;entryDx=0;entryDy=0;entryPerimeter=0;" edge="1" parent="1">
          <mxGeometry width="50" height="50" relative="1" as="geometry">
            <mxPoint x="40" y="1000" as="sourcePoint" />
            <mxPoint x="398.9200000000001" y="999.06" as="targetPoint" />
          </mxGeometry>
        </mxCell>
        <mxCell id="FCOi1G15XyQF1UqKBKPu-40" value="海外下载链接生成中，可进入 [ 海外下载链接生成记录 ] 中查&lt;br&gt;看进度。" style="text;html=1;align=left;verticalAlign=middle;resizable=0;points=[];autosize=1;strokeColor=none;fillColor=none;" vertex="1" parent="1">
          <mxGeometry x="50" y="1020" width="340" height="40" as="geometry" />
        </mxCell>
        <mxCell id="FCOi1G15XyQF1UqKBKPu-42" value="X" style="text;html=1;align=center;verticalAlign=middle;resizable=0;points=[];autosize=1;strokeColor=none;fillColor=none;" vertex="1" parent="1">
          <mxGeometry x="370" y="970" width="30" height="30" as="geometry" />
        </mxCell>
        <mxCell id="FCOi1G15XyQF1UqKBKPu-45" value="确定" style="rounded=1;whiteSpace=wrap;html=1;" vertex="1" parent="1">
          <mxGeometry x="314" y="1080" width="76" height="20" as="geometry" />
        </mxCell>
      </root>
    </mxGraphModel>
  </diagram>
</mxfile>
